<svg width="52" height="50" viewBox="0 0 52 50" fill="none" xmlns="http://www.w3.org/2000/svg">
<g id="scholarsync 2">
<path id="path14" d="M9.14844 9.62536V42.4379C9.14844 44.1636 10.6036 45.5629 12.3984 45.5629H38.3984C40.1996 45.5629 41.6484 44.1697 41.6484 42.4379V12.7504C41.6484 11.0185 40.1996 9.62536 38.3984 9.62536H9.14844Z" fill="url(#paint0_linear_371_3126)"/>
<path id="path15" d="M9.96094 15.0942V42.4379C9.96094 43.7319 11.0527 44.7817 12.3984 44.7817H38.3984C40.1996 44.7817 41.6484 43.3885 41.6484 41.6567V18.2192C41.6484 16.4873 40.1996 15.0942 38.3984 15.0942H9.96094Z" fill="#10B981"/>
<path id="path20" d="M9.96094 15.8754V40.8754C9.96094 42.1693 11.0527 43.2191 12.3984 43.2191H37.5859C38.9316 43.2191 40.0234 42.1693 40.0234 40.8754V18.2191C40.0234 16.9252 38.9316 15.8754 37.5859 15.8754H9.96094Z" fill="url(#paint1_linear_371_3126)"/>
<path id="path21" d="M40.0234 33.0628C40.0234 34.3568 38.9316 35.4066 37.5859 35.4066H9.96094V39.3128C9.96094 38.0189 11.0527 36.9691 12.3984 36.9691H37.5859C38.9316 36.9691 40.0234 35.9193 40.0234 34.6253V33.0628Z" fill="black" fill-opacity="0.14902"/>
<path id="path22" d="M12.3984 5.71919C10.6036 5.71919 9.14844 7.11842 9.14844 8.84419V38.5317H9.96094V37.7504C9.96094 36.4565 11.0527 35.4067 12.3984 35.4067H38.3984C40.1996 35.4067 41.6484 34.0136 41.6484 32.2817V8.84419C41.6484 7.11232 40.1996 5.71919 38.3984 5.71919H12.3984Z" fill="url(#paint2_linear_371_3126)"/>
<path id="path23" d="M12.3984 4.93791C10.6036 4.93791 9.14844 6.33714 9.14844 8.06291V37.7504C9.14844 36.0246 10.6036 34.6254 12.3984 34.6254H38.3984C40.1996 34.6254 41.6484 33.2323 41.6484 31.5004V8.06291C41.6484 6.33104 40.1996 4.93791 38.3984 4.93791H12.3984Z" fill="url(#paint3_linear_371_3126)"/>
<path id="path24" d="M40.0234 37.7505C40.0234 39.0444 38.9316 40.0942 37.5859 40.0942H19.7109V40.8755H37.5859C38.9316 40.8755 40.0234 39.8257 40.0234 38.5317V37.7505Z" fill="url(#paint4_linear_371_3126)"/>
<g id="Ellipse 12">
<ellipse cx="20.2927" cy="16.5" rx="3.29756" ry="4" fill="white"/>
<ellipse cx="20.2927" cy="16.5" rx="3.29756" ry="4" fill="white"/>
</g>
<g id="Ellipse 14">
<ellipse cx="31.7072" cy="16.5" rx="3.29756" ry="4" fill="white"/>
<ellipse cx="31.7072" cy="16.5" rx="3.29756" ry="4" fill="white"/>
</g>
<ellipse id="Ellipse 13" cx="20.4193" cy="16.6251" rx="1.14146" ry="1.375" fill="#0E0E0E"/>
<path id="Ellipse 15" d="M32.7219 16.6251C32.7219 17.3844 32.2108 18.0001 31.5804 18.0001C30.95 18.0001 30.439 17.3844 30.439 16.6251C30.439 15.8657 30.95 15.2501 31.5804 15.2501C32.2108 15.2501 32.7219 15.8657 32.7219 16.6251Z" fill="#0E0E0E"/>
<path id="Line 11" d="M17.7559 25.25C17.7559 25.25 25.7461 30.75 33.99 25.25" stroke="black" stroke-width="0.967189"/>
<path id="Line 12" d="M33.9902 11.2504C33.892 11.1272 31.4536 9.62539 29.1707 11.2504" stroke="black" stroke-width="0.483594"/>
<path id="Line 13" d="M18.0098 11.2504C18.108 11.1272 20.5464 9.62539 22.8293 11.2504" stroke="black" stroke-width="0.483594"/>
</g>
<defs>
<linearGradient id="paint0_linear_371_3126" x1="38.3984" y1="27.5941" x2="41.6484" y2="27.5941" gradientUnits="userSpaceOnUse">
<stop stop-color="#10B981"/>
<stop offset="0.5" stop-color="#047857"/>
<stop offset="1" stop-color="#064E3B"/>
</linearGradient>
<linearGradient id="paint1_linear_371_3126" x1="37.5859" y1="29.5472" x2="40.0234" y2="29.5472" gradientUnits="userSpaceOnUse">
<stop stop-color="#F6F5F4"/>
<stop offset="0.5" stop-color="white"/>
<stop offset="1" stop-color="#DDDCD9"/>
</linearGradient>
<linearGradient id="paint2_linear_371_3126" x1="38.3984" y1="22.1254" x2="41.6484" y2="22.1254" gradientUnits="userSpaceOnUse">
<stop stop-color="#10B981"/>
<stop offset="0.5" stop-color="#065F46"/>
<stop offset="1" stop-color="#022C22"/>
</linearGradient>
<linearGradient id="paint3_linear_371_3126" x1="9.14844" y1="21.3442" x2="12.3984" y2="21.3442" gradientUnits="userSpaceOnUse">
<stop stop-color="#022C22"/>
<stop offset="0.5" stop-color="#065F46"/>
<stop offset="1" stop-color="#059669"/>
</linearGradient>
<linearGradient id="paint4_linear_371_3126" x1="19.7109" y1="39.313" x2="40.0234" y2="39.313" gradientUnits="userSpaceOnUse">
<stop stop-opacity="0"/>
<stop offset="1" stop-opacity="0.25098"/>
</linearGradient>
</defs>
</svg>
