<svg width="48" height="76" viewBox="0 0 48 76" fill="none" xmlns="http://www.w3.org/2000/svg">
<rect width="48" height="49.9726" rx="24" fill="#49DA6E"/>
<rect x="18" y="23.9452" width="12" height="52.0548" fill="#49DA6E"/>
<path fill-rule="evenodd" clip-rule="evenodd" d="M32.6965 21.9305C33.4006 21.1975 33.3772 20.0325 32.6442 19.3284C31.9111 18.6244 30.7461 18.6478 30.0421 19.3808L21.6833 28.0831L18.1676 24.4229C17.4635 23.6899 16.2985 23.6664 15.5655 24.3705C14.8325 25.0746 14.809 26.2396 15.5131 26.9726L20.3561 32.0146C20.5612 32.2281 20.8054 32.3814 21.0666 32.4741C21.5403 32.6421 22.07 32.6107 22.5242 32.3773C22.6902 32.292 22.8459 32.1799 22.9846 32.041C22.9961 32.0296 23.0074 32.018 23.0185 32.0063L32.6965 21.9305Z" fill="#152951"/>
<path fill-rule="evenodd" clip-rule="evenodd" d="M32.6965 21.9305C33.4006 21.1975 33.3772 20.0325 32.6442 19.3284C31.9111 18.6244 30.7461 18.6478 30.0421 19.3808L21.6833 28.0831L18.1676 24.4229C17.4635 23.6899 16.2985 23.6664 15.5655 24.3705C14.8325 25.0746 14.809 26.2396 15.5131 26.9726L20.3561 32.0146C20.5612 32.2281 20.8054 32.3814 21.0666 32.4741C21.5403 32.6421 22.07 32.6107 22.5242 32.3773C22.6902 32.292 22.8459 32.1799 22.9846 32.041C22.9961 32.0296 23.0074 32.018 23.0185 32.0063L32.6965 21.9305Z" fill="#152951"/>
<path fill-rule="evenodd" clip-rule="evenodd" d="M32.6965 21.9305C33.4006 21.1975 33.3772 20.0325 32.6442 19.3284C31.9111 18.6244 30.7461 18.6478 30.0421 19.3808L21.6833 28.0831L18.1676 24.4229C17.4635 23.6899 16.2985 23.6664 15.5655 24.3705C14.8325 25.0746 14.809 26.2396 15.5131 26.9726L20.3561 32.0146C20.5612 32.2281 20.8054 32.3814 21.0666 32.4741C21.5403 32.6421 22.07 32.6107 22.5242 32.3773C22.6902 32.292 22.8459 32.1799 22.9846 32.041C22.9961 32.0296 23.0074 32.018 23.0185 32.0063L32.6965 21.9305Z" fill="#152951"/>
</svg>
