<svg width="48" height="76" viewBox="0 0 48 76" fill="none" xmlns="http://www.w3.org/2000/svg">
<rect width="48" height="49.9726" rx="24" fill="#B7C2D7"/>
<rect x="18" y="23.9452" width="12" height="52.0548" fill="#B7C2D7"/>
<g clip-path="url(#clip0_1085_2887)">
<path d="M22 28.1096C22 29.2595 22.8954 30.1918 24 30.1918C25.1046 30.1918 26 29.2595 26 28.1096C26 26.9596 25.1046 26.0274 24 26.0274C22.8954 26.0274 22 26.9596 22 28.1096Z" fill="#152951"/>
<path fill-rule="evenodd" clip-rule="evenodd" d="M28.7894 14.3178C30.0484 15.4829 30.8829 17.1721 30.9886 19.3147C34.9689 20.2933 36 22.7257 36 28.1096C36 35.8257 33.882 37.4795 24 37.4795C14.118 37.4795 12 35.8257 12 28.1096C12 22.7257 13.0311 20.2933 17.0114 19.3147C17.1171 17.1721 17.9516 15.4829 19.2106 14.3178C20.5412 13.0865 22.2869 12.4931 24 12.4931C25.7131 12.4931 27.4588 13.0865 28.7894 14.3178ZM24 18.7397C22.0655 18.7397 20.4286 18.8031 19.0468 18.9629C19.2094 17.5878 19.7814 16.5755 20.5394 15.874C21.4588 15.0231 22.7131 14.5753 24 14.5753C25.2869 14.5753 26.5412 15.0231 27.4606 15.874C28.2186 16.5755 28.7906 17.5878 28.9532 18.9629C27.5714 18.8031 25.9345 18.7397 24 18.7397ZM20 28.1096C20 30.4095 21.7909 32.274 24 32.274C26.2091 32.274 28 30.4095 28 28.1096C28 25.8097 26.2091 23.9452 24 23.9452C21.7909 23.9452 20 25.8097 20 28.1096Z" fill="#152951"/>
</g>
<defs>
<clipPath id="clip0_1085_2887">
<rect width="24" height="24.9863" fill="white" transform="translate(12 12.4931)"/>
</clipPath>
</defs>
</svg>
